<?xml version="1.0" standalone="no"?>
<!DOCTYPE svg PUBLIC "-//W3C//DTD SVG 20010904//EN"
 "http://www.w3.org/TR/2001/REC-SVG-20010904/DTD/svg10.dtd">
<svg version="1.0" xmlns="http://www.w3.org/2000/svg"
 width="1464.000000pt" height="1464.000000pt" viewBox="0 0 1464.000000 1464.000000"
 preserveAspectRatio="xMidYMid meet">
<metadata>
Created by potrace 1.14, written by Peter Selinger 2001-2017
</metadata>
<g transform="translate(0.000000,1464.000000) scale(0.100000,-0.100000)"
fill="#000000" stroke="none">
<path d="M6180 14633 c-481 -13 -883 -40 -1078 -73 -652 -112 -1236 -413
-1731 -895 -370 -360 -651 -772 -856 -1252 -140 -328 -205 -805 -257 -1883
-18 -358 -18 -2063 0 -2395 32 -611 61 -821 158 -1142 274 -907 978 -1713
1879 -2153 224 -109 439 -181 715 -240 264 -56 494 -77 670 -60 340 32 519
158 573 405 38 174 30 292 -28 411 -90 184 -289 290 -698 369 -100 20 -254 49
-342 66 -211 41 -340 84 -502 169 -251 130 -439 266 -608 441 -290 300 -458
642 -554 1124 -71 354 -81 566 -82 1725 -1 520 -2 1152 -3 1405 -1 490 6 612
49 871 88 524 271 900 595 1224 316 317 744 551 1160 634 300 60 297 60 1265
62 490 0 1113 6 1385 12 506 12 965 5 1195 -18 232 -24 532 -96 735 -177 304
-121 498 -249 708 -468 320 -333 511 -797 591 -1435 45 -354 46 -409 46 -2050
0 -1757 4 -1642 -75 -1955 -58 -225 -138 -421 -250 -605 -172 -283 -437 -550
-706 -710 -238 -141 -474 -225 -999 -355 -545 -134 -732 -194 -968 -309 -480
-233 -862 -634 -1141 -1196 -225 -453 -269 -721 -292 -1765 -11 -488 27 -663
173 -813 62 -63 197 -131 324 -163 125 -32 260 -25 352 19 94 44 173 126 226
234 90 183 109 347 94 824 -15 452 -1 668 57 895 109 427 383 782 733 952 181
89 347 136 742 212 302 58 486 102 651 155 1003 325 1783 1100 2120 2107 106
318 134 517 164 1173 40 884 40 2503 0 3260 -27 513 -55 676 -175 1035 -207
623 -574 1159 -1061 1551 -339 273 -830 523 -1227 625 -273 70 -903 122 -1807
149 -280 8 -1643 11 -1920 3z"/>
<path d="M7890 13068 c-137 -10 -194 -33 -263 -107 -140 -150 -186 -386 -172
-891 5 -157 9 -638 10 -1070 1 -855 5 -925 52 -1012 70 -129 224 -206 478
-239 65 -8 178 -9 410 -3 176 4 667 9 1090 10 783 2 1001 10 1072 39 45 19
105 74 140 129 64 99 105 269 123 506 12 162 5 745 -11 925 -32 351 -185 711
-432 1020 -86 107 -261 275 -372 357 -234 174 -519 296 -745 318 -271 27
-1114 39 -1380 18z m786 -873 c67 -20 149 -79 268 -192 120 -116 176 -153 228
-153 56 0 89 21 146 92 100 126 178 186 278 214 174 48 334 -60 334 -225 0
-92 -31 -140 -195 -302 -79 -78 -151 -156 -161 -174 -17 -32 -17 -35 1 -81 14
-37 52 -83 165 -198 161 -165 193 -213 193 -291 1 -121 -135 -265 -250 -265
-69 0 -148 49 -284 176 -150 141 -213 185 -271 191 -43 4 -43 4 -107 -73 -85
-101 -209 -205 -300 -251 -67 -34 -82 -38 -151 -38 -68 0 -81 3 -112 27 -75
57 -107 153 -87 262 23 128 87 217 250 347 95 76 109 93 109 134 0 47 -30 86
-190 250 -177 182 -196 213 -188 310 8 92 101 207 194 240 50 18 70 18 130 0z"/>
<path d="M5675 13050 c-407 -35 -760 -169 -1093 -417 -100 -74 -333 -307 -404
-403 -165 -225 -269 -460 -312 -711 -25 -146 -39 -499 -33 -844 10 -537 44
-727 142 -795 57 -40 168 -75 295 -95 139 -22 583 -30 935 -17 170 6 450 7
755 1 507 -9 726 -2 835 26 171 45 246 134 280 335 15 82 17 232 18 1229 1
1175 0 1220 -40 1381 -49 201 -116 245 -446 296 -118 19 -764 28 -932 14z
m-111 -694 c110 -33 172 -112 183 -231 3 -36 0 -133 -7 -214 -14 -165 -10
-186 43 -225 26 -19 45 -21 260 -26 256 -6 293 -14 351 -76 76 -82 72 -275 -8
-362 -57 -64 -149 -83 -381 -80 -182 2 -206 -3 -250 -52 -18 -20 -20 -33 -15
-119 9 -193 4 -334 -13 -379 -54 -141 -210 -212 -345 -157 -52 21 -124 100
-140 153 -21 68 -24 152 -13 295 7 99 7 153 0 189 -17 76 -34 81 -278 72 -166
-6 -205 -4 -252 9 -83 25 -120 54 -154 122 -27 53 -30 70 -30 150 0 115 19
151 103 192 l57 28 250 0 c138 0 256 4 262 8 27 17 34 90 31 314 -3 215 -2
231 18 273 28 59 62 89 126 111 64 22 139 24 202 5z"/>
<path d="M6115 9419 c-77 -4 -473 -6 -880 -3 -899 7 -1056 -1 -1177 -62 -187
-94 -269 -311 -271 -714 -2 -276 21 -840 38 -972 46 -350 164 -606 424 -916
254 -303 451 -446 751 -545 218 -72 303 -86 695 -108 269 -15 944 -15 1059 0
157 21 248 83 318 218 69 131 100 299 100 555 2 897 -9 2073 -20 2138 -38 225
-184 347 -474 395 -118 19 -381 26 -563 14z m-532 -746 c81 -37 152 -115 167
-186 13 -64 1 -136 -36 -216 -48 -106 -87 -131 -207 -131 -152 0 -246 46 -287
141 -52 122 -16 267 90 362 80 72 158 81 273 30z m700 -702 c159 -62 235 -202
178 -326 -21 -46 -79 -101 -129 -122 -105 -44 -145 -46 -867 -49 -748 -3 -788
-1 -866 50 -74 49 -107 178 -75 292 20 68 55 126 91 150 43 28 157 32 895 30
l715 -2 58 -23z m-688 -695 c137 -63 180 -182 115 -314 -36 -71 -93 -126 -147
-141 -95 -27 -194 -4 -268 61 -76 67 -103 141 -84 231 9 41 20 60 54 92 100
94 224 121 330 71z"/>
<path d="M7945 9378 c-192 -23 -297 -85 -357 -213 -67 -145 -77 -301 -80
-1285 -5 -1319 -4 -1356 15 -1442 41 -189 132 -273 337 -314 73 -14 177 -17
726 -21 697 -5 716 -4 906 51 594 173 1122 751 1256 1377 25 114 39 258 52
524 27 546 -3 1002 -73 1130 -54 97 -188 150 -469 186 -100 13 -2208 19 -2313
7z"/>
<path d="M7150 1114 c-214 -56 -362 -208 -404 -416 -59 -286 32 -521 243 -632
177 -93 421 -89 620 11 134 67 224 179 257 319 20 89 20 260 -1 337 -51 193
-193 332 -390 382 -75 19 -251 19 -325 -1z"/>
</g>
</svg>
